<mxfile host="65bd71144e">
    <diagram id="pIaEtrtLPv3HG8r1JEND" name="Page-1">
        <mxGraphModel dx="1151" dy="661" grid="1" gridSize="10" guides="1" tooltips="1" connect="1" arrows="1" fold="1" page="1" pageScale="1" pageWidth="850" pageHeight="1100" math="0" shadow="0">
            <root>
                <mxCell id="0"/>
                <mxCell id="1" parent="0"/>
                <mxCell id="6" value="" style="rounded=0;whiteSpace=wrap;html=1;" vertex="1" parent="1">
                    <mxGeometry x="80" y="80" width="400" height="300" as="geometry"/>
                </mxCell>
                <mxCell id="7" value="Header" style="rounded=0;whiteSpace=wrap;html=1;" vertex="1" parent="1">
                    <mxGeometry x="80" y="80" width="400" height="40" as="geometry"/>
                </mxCell>
                <mxCell id="8" value="Calculate" style="labelPosition=center;verticalLabelPosition=middle;align=center;html=1;shape=mxgraph.basic.button;dx=10;" vertex="1" parent="1">
                    <mxGeometry x="100" y="230" width="100" height="40" as="geometry"/>
                </mxCell>
                <mxCell id="9" value="What pie you want" style="text;html=1;strokeColor=none;fillColor=none;align=center;verticalAlign=middle;whiteSpace=wrap;rounded=0;" vertex="1" parent="1">
                    <mxGeometry x="70" y="150" width="150" height="30" as="geometry"/>
                </mxCell>
                <mxCell id="10" value="toping 1" style="text;html=1;strokeColor=none;fillColor=none;align=center;verticalAlign=middle;whiteSpace=wrap;rounded=0;" vertex="1" parent="1">
                    <mxGeometry x="90" y="170" width="60" height="30" as="geometry"/>
                </mxCell>
                <mxCell id="11" value="" style="rounded=0;whiteSpace=wrap;html=1;" vertex="1" parent="1">
                    <mxGeometry x="210" y="160" width="50" height="10" as="geometry"/>
                </mxCell>
                <mxCell id="12" value="" style="rounded=0;whiteSpace=wrap;html=1;" vertex="1" parent="1">
                    <mxGeometry x="150" y="180" width="50" height="10" as="geometry"/>
                </mxCell>
                <mxCell id="13" value="" style="triangle;whiteSpace=wrap;html=1;rotation=90;" vertex="1" parent="1">
                    <mxGeometry x="250" y="160" width="10" height="10" as="geometry"/>
                </mxCell>
                <mxCell id="14" value="" style="triangle;whiteSpace=wrap;html=1;rotation=90;" vertex="1" parent="1">
                    <mxGeometry x="189" y="180" width="10" height="10" as="geometry"/>
                </mxCell>
                <mxCell id="15" value="" style="whiteSpace=wrap;html=1;aspect=fixed;" vertex="1" parent="1">
                    <mxGeometry x="340" y="127.5" width="130" height="130" as="geometry"/>
                </mxCell>
                <mxCell id="16" value="Actor" style="shape=umlActor;verticalLabelPosition=bottom;verticalAlign=top;html=1;outlineConnect=0;" vertex="1" parent="1">
                    <mxGeometry x="390" y="150" width="30" height="60" as="geometry"/>
                </mxCell>
                <mxCell id="17" value="" style="rounded=0;whiteSpace=wrap;html=1;" vertex="1" parent="1">
                    <mxGeometry x="149" y="200" width="50" height="10" as="geometry"/>
                </mxCell>
                <mxCell id="18" value="" style="triangle;whiteSpace=wrap;html=1;rotation=90;" vertex="1" parent="1">
                    <mxGeometry x="188" y="200" width="10" height="10" as="geometry"/>
                </mxCell>
                <mxCell id="19" value="toping 2" style="text;html=1;strokeColor=none;fillColor=none;align=center;verticalAlign=middle;whiteSpace=wrap;rounded=0;" vertex="1" parent="1">
                    <mxGeometry x="90" y="190" width="60" height="30" as="geometry"/>
                </mxCell>
            </root>
        </mxGraphModel>
    </diagram>
</mxfile>